<svg width="512" height="420" viewBox="0 0 512 420" fill="none" xmlns="http://www.w3.org/2000/svg">
<path d="M33.7575 180.005H488.303C494.331 180.005 500.111 183.165 504.374 188.791C508.636 194.416 511.03 202.046 511.03 210.001C511.03 217.957 508.636 225.586 504.374 231.212C500.111 236.837 494.331 239.997 488.303 239.997H33.7575C27.7299 239.997 30.7622 231.125 26.5 225.5C22.2378 219.875 11.0303 217.957 11.0303 210.001C11.0303 202.046 22.2378 194.416 26.5 188.791C30.7622 183.165 27.7299 180.005 33.7575 180.005Z" fill="#1E99A9"/>
<path d="M227.341 372.287L227.34 372.286L65.2928 210L227.34 47.7139L227.341 47.7135C232.026 43.0201 234.657 36.6564 234.657 30.0227C234.657 23.3891 232.026 17.0254 227.341 12.332C222.655 7.6384 216.298 5 209.668 5C203.038 5 196.681 7.63839 191.996 12.332L12.3309 192.305L15.865 195.842L12.3264 192.309L12.3276 192.308C10.0048 194.63 8.16228 197.387 6.9051 200.422C5.64733 203.458 5 206.713 5 210C5 213.287 5.64732 216.542 6.9051 219.578C8.16226 222.613 10.0047 225.37 12.3275 227.692C12.3286 227.693 12.3297 227.694 12.3309 227.695L191.996 407.668C196.681 412.362 203.038 415 209.668 415C216.298 415 222.655 412.362 227.341 407.668C232.026 402.975 234.657 396.611 234.657 389.977C234.657 383.344 232.026 376.98 227.341 372.287Z" fill="#1E99A9" stroke="#1E99A9" stroke-width="10"/>
</svg>
