<svg width="512" height="420" viewBox="0 0 512 420" fill="none" xmlns="http://www.w3.org/2000/svg">
<path d="M33.7575 180.005H488.303C494.331 180.005 500.111 183.165 504.374 188.791C508.636 194.416 511.03 202.046 511.03 210.001C511.03 217.957 508.636 225.586 504.374 231.212C500.111 236.837 494.331 239.997 488.303 239.997H33.7575C27.7299 239.997 30.7622 231.125 26.5 225.5C22.2378 219.875 11.0303 217.957 11.0303 210.001C11.0303 202.046 22.2378 194.416 26.5 188.791C30.7622 183.165 27.7299 180.005 33.7575 180.005Z" fill="#00EDDF"/>
<path d="M227.34 372.286L227.341 372.287C232.026 376.98 234.657 383.344 234.657 389.977C234.657 396.611 232.026 402.975 227.341 407.668C222.655 412.362 216.298 415 209.668 415C203.038 415 196.681 412.362 191.996 407.668L12.3309 227.695C12.3294 227.694 12.3279 227.692 12.3264 227.691M227.34 372.286L12.3264 227.691M227.34 372.286L65.2928 210L227.34 47.7139L227.341 47.7135C232.026 43.0201 234.657 36.6564 234.657 30.0227C234.657 23.3891 232.026 17.0254 227.341 12.332C222.655 7.63839 216.298 5 209.668 5C203.038 5 196.681 7.63839 191.996 12.332L12.3309 192.305C12.3302 192.305 12.3295 192.306 12.3289 192.307C10.0055 194.629 8.16251 197.387 6.9051 200.422C5.64733 203.458 5 206.713 5 210C5 213.287 5.64732 216.542 6.9051 219.578C8.16207 222.612 10.0042 225.369 12.3264 227.691M227.34 372.286L12.3264 227.691" fill="#00EDDF" stroke="#00EDDF" stroke-width="10"/>
</svg>
