<svg width="2434" height="1000" viewBox="0 0 2434 1000" fill="none" xmlns="http://www.w3.org/2000/svg">
<rect x="1433.33" y="822.223" width="666.667" height="133.333" transform="rotate(-90 1433.33 822.223)" fill="#1E99A9"/>
<rect x="1144.44" y="844.445" width="688.889" height="133.333" transform="rotate(-90 1144.44 844.445)" fill="#1E99A9"/>
<rect x="877.776" y="844.445" width="666.667" height="133.333" transform="rotate(-90 877.776 844.445)" fill="#1E99A9"/>
<rect x="2211.11" y="666.666" width="333.333" height="133.333" transform="rotate(-90 2211.11 666.666)" fill="#1E99A9"/>
<rect x="77.7788" y="666.666" width="333.333" height="133.333" transform="rotate(-90 77.7788 666.666)" fill="#1E99A9"/>
<path d="M2333.33 200C2396.62 214.767 2419.87 231.583 2422.22 288.889C2425 358.486 2405.79 373.263 2333.33 388.889C2193.23 400.347 2128.7 428.617 2044.44 522.222C1709.57 900.3 1534.58 977.542 1233.33 1000C886.787 995.26 704.614 891.078 400 522.222C330.701 444.504 269.506 418.025 122.222 400C32.1964 391.77 7.72925 364.048 0 288.889C10.2211 210.479 44.6982 199.983 122.222 200C359.421 230.36 472.531 313.094 655.556 522.222C823.341 717.387 944.862 787.721 1233.33 811.111C1464.5 789.278 1587.39 743.929 1777.78 522.222C1997.42 292.243 2119.55 201.811 2333.33 200Z" fill="#00EDDF"/>
<path d="M100.255 800C36.9656 785.233 13.7144 768.417 11.366 711.111C8.59131 641.514 27.802 626.737 100.255 611.111C240.358 599.653 304.889 571.383 389.144 477.778C724.014 99.7005 899.011 22.4582 1200.25 0C1546.8 4.74027 1728.97 108.922 2033.59 477.778C2102.89 555.496 2164.08 581.975 2311.37 600C2401.39 608.23 2425.86 635.952 2433.59 711.111C2423.37 789.521 2388.89 800.017 2311.37 800C2074.17 769.64 1961.06 686.906 1778.03 477.778C1610.25 282.613 1488.73 212.279 1200.25 188.889C969.083 210.722 846.2 256.071 655.81 477.778C436.166 707.757 314.035 798.189 100.255 800Z" fill="#1E99A9"/>
</svg>
