<svg width="54" height="61" viewBox="0 0 54 61" fill="none" xmlns="http://www.w3.org/2000/svg">
<path fill-rule="evenodd" clip-rule="evenodd" d="M37.1255 0C37.5687 -9.37842e-09 38.0076 0.0876567 38.4171 0.257964C38.8265 0.428272 39.1986 0.677895 39.512 0.992582C39.8254 1.30727 40.074 1.68086 40.2436 2.09202C40.4132 2.50318 40.5005 2.94385 40.5005 3.38889C40.5005 3.83392 40.4132 4.2746 40.2436 4.68576C40.074 5.09692 39.8254 5.47051 39.512 5.7852C39.1986 6.09988 38.8265 6.34951 38.4171 6.51981C38.0076 6.69012 37.5687 6.77778 37.1255 6.77778H6.75009V50.8333C6.75009 51.7321 7.10567 52.5941 7.73862 53.2296C8.37156 53.8652 9.23002 54.2222 10.1251 54.2222H37.1255C38.0206 54.2222 38.8791 54.5793 39.512 55.2148C40.145 55.8503 40.5005 56.7123 40.5005 57.6111C40.5005 58.5099 40.145 59.3719 39.512 60.0074C38.8791 60.643 38.0206 61 37.1255 61H10.1251C7.43978 61 4.86441 59.9289 2.96558 58.0223C1.06675 56.1156 0 53.5297 0 50.8333V3.38889C0 2.4901 0.355585 1.62812 0.988528 0.992583C1.62147 0.357043 2.47993 0 3.37505 0H37.1255ZM42.8867 17.9374C42.4149 17.4638 41.8139 17.1412 41.1596 17.0104C40.5053 16.8796 39.8271 16.9464 39.2106 17.2024C38.5941 17.4585 38.067 17.8922 37.6959 18.4488C37.3248 19.0055 37.1263 19.6601 37.1255 20.3299V27.1077H16.8752C15.9801 27.1077 15.1217 27.4648 14.4887 28.1003C13.8558 28.7358 13.5002 29.5978 13.5002 30.4966C13.5002 31.3954 13.8558 32.2574 14.4887 32.8929C15.1217 33.5285 15.9801 33.8855 16.8752 33.8855H37.1255V40.6633C37.1256 41.3334 37.3237 41.9885 37.6945 42.5457C38.0654 43.1028 38.5924 43.5371 39.2091 43.7935C39.8257 44.05 40.5042 44.1171 41.1588 43.9864C41.8134 43.8557 42.4147 43.533 42.8867 43.0592L53.0118 32.8926C53.6446 32.257 54 31.3952 54 30.4966C54 29.598 53.6446 28.7362 53.0118 28.1007L42.8867 17.9374Z" fill="#A8A8A8"/>
</svg>
