<svg width="38" height="40" viewBox="0 0 38 40" fill="none" xmlns="http://www.w3.org/2000/svg">
<path d="M5.64929 23.9974L5.64804 23.9999L2.03335 31.2272C2.03333 31.2272 2.03332 31.2272 2.0333 31.2273C2.00925 31.2754 1.9979 31.3289 2.00032 31.3826C2.00274 31.4364 2.01887 31.4887 2.04717 31.5344L0.345911 32.586L2.04717 31.5345C2.07548 31.5803 2.11502 31.618 2.16203 31.6443L2.16204 31.6443C2.20905 31.6705 2.26199 31.6842 2.31584 31.6842H2.31613H35.3182H35.3185C35.3724 31.6842 35.4253 31.6705 35.4723 31.6443L36.3958 33.3009L35.4723 31.6443C35.5193 31.618 35.5589 31.5803 35.5872 31.5344C35.6155 31.4887 35.6316 31.4364 35.6341 31.3826C35.6365 31.3288 35.6251 31.2753 35.601 31.2272L35.6009 31.2269L31.9892 24.0014L5.64929 23.9974ZM5.64929 23.9974C5.93309 23.428 6.08065 22.8004 6.08034 22.1642C6.08034 22.164 6.08034 22.1638 6.08034 22.1636V14.7368C6.08034 11.3588 7.42226 8.11916 9.81088 5.73053C12.1995 3.34191 15.4392 2 18.8172 2C22.1952 2 25.4349 3.34191 27.8235 5.73053C30.2121 8.11916 31.554 11.3588 31.554 14.7368L31.554 22.1642L31.554 22.1664M5.64929 23.9974L31.554 22.1664M31.554 22.1664C31.5547 22.8028 31.7034 23.4304 31.9882 23.9995L31.554 22.1664ZM17.4835 37.7895H20.1508C19.7228 37.9283 19.2731 38.0001 18.8178 38H18.8166C18.3613 38.0001 17.9116 37.9283 17.4835 37.7895Z" stroke="#A8A8A8" stroke-width="4"/>
</svg>
