<svg width="108" height="80" viewBox="0 0 108 80" fill="none" xmlns="http://www.w3.org/2000/svg">
<g filter="url(#filter0_d_698_3653)">
<path d="M24 70.3265C24 68.9734 24.439 67.6757 25.2204 66.7188C26.0018 65.762 27.0616 65.2245 28.1667 65.2245H79.8333C80.9384 65.2245 81.9982 65.762 82.7796 66.7188C83.561 67.6757 84 68.9734 84 70.3265C84 71.6797 83.561 72.9774 82.7796 73.9342C81.9982 74.891 80.9384 75.4286 79.8333 75.4286H28.1667C27.0616 75.4286 26.0018 74.891 25.2204 73.9342C24.439 72.9774 24 71.6797 24 70.3265ZM14 39.7143C14 38.3611 14.439 37.0634 15.2204 36.1066C16.0018 35.1498 17.0616 34.6122 18.1667 34.6122H89.8333C90.9384 34.6122 91.9982 35.1498 92.7796 36.1066C93.561 37.0634 94 38.3611 94 39.7143C94 41.0674 93.561 42.3652 92.7796 43.322C91.9982 44.2788 90.9384 44.8163 89.8333 44.8163H18.1667C17.0616 44.8163 16.0018 44.2788 15.2204 43.322C14.439 42.3652 14 41.0674 14 39.7143ZM4 9.10204C4 7.7489 4.43899 6.45117 5.22039 5.49435C6.00179 4.53754 7.0616 4 8.16667 4H99.8333C100.938 4 101.998 4.53754 102.78 5.49435C103.561 6.45117 104 7.7489 104 9.10204C104 10.4552 103.561 11.7529 102.78 12.7097C101.998 13.6665 100.938 14.2041 99.8333 14.2041H8.16667C7.0616 14.2041 6.00179 13.6665 5.22039 12.7097C4.43899 11.7529 4 10.4552 4 9.10204Z" fill="#1E98A8"/>
</g>
<defs>
<filter id="filter0_d_698_3653" x="0" y="0" width="108" height="79.4287" filterUnits="userSpaceOnUse" color-interpolation-filters="sRGB">
<feFlood flood-opacity="0" result="BackgroundImageFix"/>
<feColorMatrix in="SourceAlpha" type="matrix" values="0 0 0 0 0 0 0 0 0 0 0 0 0 0 0 0 0 0 127 0" result="hardAlpha"/>
<feOffset/>
<feGaussianBlur stdDeviation="2"/>
<feComposite in2="hardAlpha" operator="out"/>
<feColorMatrix type="matrix" values="0 0 0 0 0 0 0 0 0 0 0 0 0 0 0 0 0 0 0.25 0"/>
<feBlend mode="normal" in2="BackgroundImageFix" result="effect1_dropShadow_698_3653"/>
<feBlend mode="normal" in="SourceGraphic" in2="effect1_dropShadow_698_3653" result="shape"/>
</filter>
</defs>
</svg>
